<svg width="48" height="48" viewBox="0 0 48 48" fill="none" xmlns="http://www.w3.org/2000/svg">
<path d="M8 3.50676L23.155 12.5042V28.9996L8 3.50676Z" fill="#02464E"/>
<path d="M40 3.50652L24.8446 12.5042V29L40 3.50652Z" fill="#046873"/>
<path d="M8.74599 2L39.2536 2.00001L23.9998 11.0561L8.74599 2Z" fill="#008694"/>
<path d="M6.63125 36.622V43.1922H5.65943V42.2235C5.38313 42.5979 5.0449 42.8927 4.64474 43.108C4.24458 43.3139 3.8063 43.4168 3.32992 43.4168C2.69157 43.4168 2.11991 43.2671 1.61494 42.9676C1.10997 42.6681 0.714575 42.2516 0.428745 41.7181C0.142915 41.1847 0 40.5763 0 39.8931C0 39.2192 0.138151 38.6202 0.414454 38.0961C0.700283 37.5626 1.09092 37.1461 1.58636 36.8467C2.09132 36.5472 2.66298 36.3974 3.30134 36.3974C3.78725 36.3974 4.23028 36.505 4.63045 36.7203C5.04014 36.9262 5.38313 37.221 5.65943 37.6048V36.622H6.63125ZM3.30134 42.5464C3.75866 42.5464 4.16359 42.4341 4.51611 42.2095C4.87816 41.9849 5.15923 41.6713 5.35931 41.2689C5.55939 40.8665 5.65943 40.4125 5.65943 39.9071C5.65943 39.4017 5.55939 38.9478 5.35931 38.5454C5.15923 38.1429 4.87816 37.8294 4.51611 37.6048C4.16359 37.3801 3.75866 37.2678 3.30134 37.2678C2.85354 37.2678 2.45337 37.3801 2.10085 37.6048C1.74833 37.8294 1.47202 38.1429 1.27194 38.5454C1.07186 38.9384 0.971822 39.3877 0.971822 39.8931C0.971822 40.4078 1.07186 40.8665 1.27194 41.2689C1.47202 41.6713 1.74833 41.9849 2.10085 42.2095C2.45337 42.4341 2.85354 42.5464 3.30134 42.5464Z" fill="black"/>
<path d="M14.6423 33V43.1922H13.6705V42.2235C13.3942 42.5979 13.056 42.8927 12.6558 43.108C12.2556 43.3139 11.8174 43.4168 11.341 43.4168C10.7026 43.4168 10.131 43.2671 9.62599 42.9676C9.12103 42.6681 8.72563 42.2516 8.4398 41.7181C8.15397 41.1847 8.01105 40.5763 8.01105 39.8931C8.01105 39.2192 8.14921 38.6202 8.42551 38.0961C8.71134 37.5626 9.10197 37.1461 9.59741 36.8467C10.1024 36.5472 10.674 36.3974 11.3124 36.3974C11.7983 36.3974 12.2413 36.505 12.6415 36.7203C13.0512 36.9262 13.3942 37.221 13.6705 37.6048V33H14.6423ZM11.3124 42.5464C11.7697 42.5464 12.1746 42.4341 12.5272 42.2095C12.8892 41.9849 13.1703 41.6713 13.3704 41.2689C13.5704 40.8665 13.6705 40.4125 13.6705 39.9071C13.6705 39.4017 13.5704 38.9478 13.3704 38.5454C13.1703 38.1429 12.8892 37.8294 12.5272 37.6048C12.1746 37.3801 11.7697 37.2678 11.3124 37.2678C10.8646 37.2678 10.4644 37.3801 10.1119 37.6048C9.75938 37.8294 9.48308 38.1429 9.283 38.5454C9.08292 38.9384 8.98288 39.3877 8.98288 39.8931C8.98288 40.4078 9.08292 40.8665 9.283 41.2689C9.48308 41.6713 9.75938 41.9849 10.1119 42.2095C10.4644 42.4341 10.8646 42.5464 11.3124 42.5464Z" fill="black"/>
<path d="M14.8931 45.1296H15.2932C15.6267 45.1296 15.8982 45.0173 16.1079 44.7927C16.327 44.568 16.4366 44.2779 16.4366 43.9222V36.622H17.4084V43.9222C17.4084 44.5306 17.2083 45.0266 16.8081 45.4104C16.4175 45.8035 15.9125 46 15.2932 46H14.8931V45.1296ZM16.9225 35.3445C16.7033 35.3445 16.5175 35.2696 16.3651 35.1199C16.2222 34.9701 16.1507 34.7876 16.1507 34.5724C16.1507 34.3665 16.2222 34.1933 16.3651 34.0529C16.5175 33.9032 16.7033 33.8283 16.9225 33.8283C17.1321 33.8283 17.3131 33.9032 17.4655 34.0529C17.618 34.1933 17.6942 34.3711 17.6942 34.5864C17.6942 34.7923 17.618 34.9701 17.4655 35.1199C17.3131 35.2696 17.1321 35.3445 16.9225 35.3445Z" fill="black"/>
<path d="M25.0738 36.622V43.1922H24.1019V42.0972C23.8733 42.5184 23.5684 42.8459 23.1873 43.0799C22.8157 43.3045 22.3822 43.4168 21.8868 43.4168C21.4199 43.4168 20.9864 43.3233 20.5862 43.1361C20.1956 42.9489 19.8812 42.6728 19.643 42.3078C19.4143 41.9428 19.3 41.5122 19.3 41.0162V36.622H20.2718V40.595C20.2718 41.896 20.8625 42.5464 22.044 42.5464C22.73 42.5464 23.2445 42.3078 23.5874 41.8305C23.9304 41.3531 24.1019 40.712 24.1019 39.9071V36.622H25.0738Z" fill="black"/>
<path d="M27.119 33.6177H30.3775C31.254 33.6177 31.9543 33.8798 32.4783 34.4039C33.0023 34.928 33.2644 35.6533 33.2644 36.5799C33.2644 37.4971 32.988 38.2178 32.4354 38.7419C31.8924 39.266 31.1683 39.5281 30.2631 39.5281H28.1909V43.1922H27.119V33.6177ZM30.2346 38.6577C30.8729 38.6577 31.3588 38.4845 31.6923 38.1382C32.0258 37.7826 32.1925 37.2631 32.1925 36.5799C32.1925 35.8967 32.0258 35.3772 31.6923 35.0216C31.3588 34.6659 30.8729 34.4881 30.2346 34.4881H28.1909V38.6577H30.2346Z" fill="black"/>
<path d="M40.2403 43.1922L39.2399 40.5108H35.1954L34.295 43.1922H33.2232L36.6817 33.6177H37.6821L41.2407 43.1922H40.2403ZM35.5241 39.6404H38.9112L37.1676 34.9935L35.5241 39.6404Z" fill="black"/>
<path d="M42.5406 43.1922V33.6177H43.6125V42.3218H48V43.1922H42.5406Z" fill="black"/>
</svg>
